<?xml version="1.0" standalone="no"?>
<!DOCTYPE svg PUBLIC "-//W3C//DTD SVG 20010904//EN"
 "http://www.w3.org/TR/2001/REC-SVG-20010904/DTD/svg10.dtd">
<svg version="1.0" xmlns="http://www.w3.org/2000/svg"
 width="348.000000pt" height="348.000000pt" viewBox="0 0 348.000000 348.000000"
 preserveAspectRatio="xMidYMid meet">

<g transform="translate(0.000000,348.000000) scale(0.100000,-0.100000)"
fill="#000000" stroke="none">
<path d="M1630 3034 c-317 -36 -571 -152 -787 -357 -199 -189 -343 -464 -389
-742 -30 -183 -9 -419 52 -603 108 -323 363 -615 664 -759 196 -94 349 -128
570 -127 237 0 392 38 596 143 350 180 596 506 680 901 25 116 25 370 0 492
-49 248 -161 465 -332 648 -183 194 -442 336 -702 386 -78 15 -287 26 -352 18z
m-244 -489 c48 -20 106 -67 134 -108 l24 -34 45 21 c41 19 64 21 226 21 151 0
187 -3 226 -18 l46 -19 59 59 c60 60 122 97 152 91 11 -2 21 -20 28 -53 16
-68 16 -112 1 -173 -13 -49 -13 -52 9 -73 75 -71 110 -335 64 -490 -45 -151
-181 -266 -347 -294 -24 -4 -45 -10 -47 -14 -3 -3 4 -31 14 -61 17 -47 19 -86
20 -267 l0 -213 -220 0 -219 0 -3 105 -3 106 -100 2 c-81 2 -108 7 -142 25
-59 31 -108 85 -151 166 -20 38 -60 96 -90 127 -29 32 -51 63 -47 69 9 14 70
12 108 -3 31 -13 61 -44 136 -137 44 -54 118 -90 186 -89 88 2 97 8 110 69 6
30 17 66 24 78 7 13 11 25 9 26 -2 2 -30 8 -63 15 -141 30 -262 116 -314 224
-42 86 -55 178 -41 307 13 134 23 167 66 230 33 48 34 53 23 87 -14 43 -8 178
10 211 14 26 20 27 67 7z"/>
</g>
</svg>
